<svg width="412" height="74" viewBox="0 0 412 74" fill="none" xmlns="http://www.w3.org/2000/svg">
<path d="M0.90625 17.9062C0.90625 17.4062 0.927083 17.0938 0.96875 16.9688C0.96875 16.5521 1.13542 16.1771 1.46875 15.8438C1.80208 15.4896 2.11458 15.25 2.40625 15.125C2.71875 14.9792 2.90625 14.9062 2.96875 14.9062C5.30208 14.5729 12.6667 14.4062 25.0625 14.4062C31.4583 14.4062 35.7396 14.3229 37.9062 14.1562C38.0729 14.1146 38.4583 14.0938 39.0625 14.0938C40.1042 14.0938 40.8229 14.2708 41.2188 14.625C41.6146 14.9583 41.8125 15.5625 41.8125 16.4375C41.8125 17.9792 41.4375 19.4062 40.6875 20.7188C39.9583 22.0104 39.0729 22.7604 38.0312 22.9688C36.1771 23.2812 32.7917 23.4375 27.875 23.4375H26.9688C25.1562 27.5417 23.3438 33.125 21.5312 40.1875C19.7604 47.3542 18.2917 53.6667 17.125 59.125C15.875 64.9583 15.0625 68.2917 14.6875 69.125C14.1458 69.3333 13.3333 69.7396 12.25 70.3438C11.1667 70.9479 10.1667 71.4271 9.25 71.7812C8.5 72.0729 7.78125 72.2188 7.09375 72.2188C6.92708 72.2188 6.77083 72.2083 6.625 72.1875C5.60417 72.1875 4.66667 71.9271 3.8125 71.4062C2.95833 70.8854 2.53125 70.2708 2.53125 69.5625C2.53125 69.3125 2.55208 69.1667 2.59375 69.125C3.63542 66.125 5.53125 58.9792 8.28125 47.6875C10.8438 37.1042 13.0208 29.0208 14.8125 23.4375C9.10417 23.4375 5.26042 23.6875 3.28125 24.1875H3.09375C2.40625 24.1875 1.875 23.5104 1.5 22.1562C1.10417 20.6771 0.90625 19.2604 0.90625 17.9062ZM44.3438 43.8438C44.3438 42.6979 44.7292 41.6771 45.5 40.7812C46.6875 39.5312 48.0312 38.5417 49.5312 37.8125C50.8854 37.0625 52.0833 36.5729 53.125 36.3438C54.5833 36.0938 56.25 35.8646 58.125 35.6562L62.7188 35.0625C63.5521 34.8958 65.2188 34.75 67.7188 34.625C69.6771 34.5208 71.8125 34.2604 74.125 33.8438C76.3958 33.3854 79.0208 32.6875 82 31.75C82.0833 31.75 82.125 31.8333 82.125 32C82.125 32.5417 81.6979 34.1458 80.8438 36.8125C80.0312 39.125 79.5208 40.6979 79.3125 41.5312L78.7188 42.5625C78.5312 42.8958 78.2604 43.1458 77.9062 43.3125C77.3229 43.6458 77 43.8229 76.9375 43.8438C76.6875 44.0312 76.3021 44.1562 75.7812 44.2188L74.5 44.4688C74.25 44.5312 73.7604 44.6042 73.0312 44.6875C72.3021 44.75 71.8125 44.8125 71.5625 44.875C70.2708 45 69.1146 45.0625 68.0938 45.0625C66.9896 45.0625 66.3125 45.0417 66.0625 45C65.0833 44.8333 63.8229 44.75 62.2812 44.75H61.4375C59.8125 44.8125 58.4271 45.1042 57.2812 45.625C56.9271 45.8125 56.7812 46.0312 56.8438 46.2812C57.0938 46.8438 59.9271 47.4375 65.3438 48.0625C69.1354 48.5417 71.5521 48.8854 72.5938 49.0938C73.3438 49.2604 73.8854 49.4688 74.2188 49.7188C74.5521 49.9688 74.7083 50.2917 74.6875 50.6875V53.4375L74.5 54.4688C74.3958 54.8646 74.2292 55.2083 74 55.5C73.6875 55.8125 73.3438 56.0625 72.9688 56.25C71.2396 57.2292 69.3021 58 67.1562 58.5625L61.75 59.9688C60.3125 60.4062 59.375 60.9792 58.9375 61.6875C58.75 62 58.6875 62.2604 58.75 62.4688C58.9167 62.7604 59.4062 62.9062 60.2188 62.9062C61.5729 62.9062 63.6667 62.5208 66.5 61.75C68.5208 61.2292 71.2708 60.125 74.75 58.4375C78.3125 56.7292 81.1771 55.6146 83.3438 55.0938C83.9271 55.0104 84.2396 54.9688 84.2812 54.9688C84.7188 54.9688 85.1875 55.0521 85.6875 55.2188C86.4792 55.5729 86.9062 56.1146 86.9688 56.8438C86.9688 56.9062 86.9792 57.0312 87 57.2188C87.0208 57.4062 87.0312 57.5312 87.0312 57.5938C87.0312 60.4479 84.9688 62.9896 80.8438 65.2188C76.7188 67.4896 72.875 69.3229 69.3125 70.7188C66.3958 71.7396 62.875 72.25 58.75 72.25C50.6667 72.25 46.2083 69.9062 45.375 65.2188C45.2917 64.5521 45.25 64.1875 45.25 64.125C45.25 63.2083 45.5312 62.2083 46.0938 61.125C46.8438 59.7292 47.8229 58.5521 49.0312 57.5938C50.7396 56.3646 51.9375 55.5521 52.625 55.1562C53.6458 54.5938 54.625 54.125 55.5625 53.75C55.3125 53.7083 54.9479 53.625 54.4688 53.5C51.1771 52.9375 48.875 52.2396 47.5625 51.4062C47 51.0938 46.4271 50.2812 45.8438 48.9688C45.1354 47.7812 44.6562 46.375 44.4062 44.75C44.4062 44.6875 44.3958 44.5417 44.375 44.3125C44.3542 44.0625 44.3438 43.9062 44.3438 43.8438ZM90.8438 68.4062C90.8438 68.0729 90.8958 67.6458 91 67.125L97.1875 42.75C99.7292 32.5208 101.417 26.0833 102.25 23.4375C103.167 20.125 104.344 16.6875 105.781 13.125C106.99 10.0417 108.604 7.05208 110.625 4.15625C112.417 1.63542 114.125 0.375 115.75 0.375H116.188C118.75 0.625 120.031 2.51042 120.031 6.03125C120.031 7.82292 119.677 10.1042 118.969 12.875C118.281 15.4167 116.292 21.1771 113 30.1562C106.854 44.6562 103.531 54.8542 103.031 60.75V61.6875L103.156 62.4688L103.281 63.0312L103.406 63.375L103.656 63.5625L104.031 63.6875L104.312 63.75H104.938C105.521 63.75 106.521 63.5521 107.938 63.1562C109.042 62.8229 110 62.6562 110.812 62.6562H111.281C112.135 62.7188 112.771 63.2708 113.188 64.3125C113.354 64.6458 113.438 65.1354 113.438 65.7812C113.438 66.5938 113.167 67.4688 112.625 68.4062C111.771 69.8229 110.719 70.7604 109.469 71.2188C106.865 72.2396 103.865 72.9688 100.469 73.4062C98.6979 73.6146 97.4375 73.7188 96.6875 73.7188C95.2083 73.7188 94.1562 73.5312 93.5312 73.1562C92.7396 72.6354 92.0208 71.8021 91.375 70.6562C91.0208 69.7604 90.8438 69.0104 90.8438 68.4062ZM120.656 43.8438C120.656 42.6979 121.042 41.6771 121.812 40.7812C123 39.5312 124.344 38.5417 125.844 37.8125C127.198 37.0625 128.396 36.5729 129.438 36.3438C130.896 36.0938 132.562 35.8646 134.438 35.6562L139.031 35.0625C139.865 34.8958 141.531 34.75 144.031 34.625C145.99 34.5208 148.125 34.2604 150.438 33.8438C152.708 33.3854 155.333 32.6875 158.312 31.75C158.396 31.75 158.438 31.8333 158.438 32C158.438 32.5417 158.01 34.1458 157.156 36.8125C156.344 39.125 155.833 40.6979 155.625 41.5312L155.031 42.5625C154.844 42.8958 154.573 43.1458 154.219 43.3125C153.635 43.6458 153.312 43.8229 153.25 43.8438C153 44.0312 152.615 44.1562 152.094 44.2188L150.812 44.4688C150.562 44.5312 150.073 44.6042 149.344 44.6875C148.615 44.75 148.125 44.8125 147.875 44.875C146.583 45 145.427 45.0625 144.406 45.0625C143.302 45.0625 142.625 45.0417 142.375 45C141.396 44.8333 140.135 44.75 138.594 44.75H137.75C136.125 44.8125 134.74 45.1042 133.594 45.625C133.24 45.8125 133.094 46.0312 133.156 46.2812C133.406 46.8438 136.24 47.4375 141.656 48.0625C145.448 48.5417 147.865 48.8854 148.906 49.0938C149.656 49.2604 150.198 49.4688 150.531 49.7188C150.865 49.9688 151.021 50.2917 151 50.6875V53.4375L150.812 54.4688C150.708 54.8646 150.542 55.2083 150.312 55.5C150 55.8125 149.656 56.0625 149.281 56.25C147.552 57.2292 145.615 58 143.469 58.5625L138.062 59.9688C136.625 60.4062 135.688 60.9792 135.25 61.6875C135.062 62 135 62.2604 135.062 62.4688C135.229 62.7604 135.719 62.9062 136.531 62.9062C137.885 62.9062 139.979 62.5208 142.812 61.75C144.833 61.2292 147.583 60.125 151.062 58.4375C154.625 56.7292 157.49 55.6146 159.656 55.0938C160.24 55.0104 160.552 54.9688 160.594 54.9688C161.031 54.9688 161.5 55.0521 162 55.2188C162.792 55.5729 163.219 56.1146 163.281 56.8438C163.281 56.9062 163.292 57.0312 163.312 57.2188C163.333 57.4062 163.344 57.5312 163.344 57.5938C163.344 60.4479 161.281 62.9896 157.156 65.2188C153.031 67.4896 149.188 69.3229 145.625 70.7188C142.708 71.7396 139.188 72.25 135.062 72.25C126.979 72.25 122.521 69.9062 121.688 65.2188C121.604 64.5521 121.562 64.1875 121.562 64.125C121.562 63.2083 121.844 62.2083 122.406 61.125C123.156 59.7292 124.135 58.5521 125.344 57.5938C127.052 56.3646 128.25 55.5521 128.938 55.1562C129.958 54.5938 130.938 54.125 131.875 53.75C131.625 53.7083 131.26 53.625 130.781 53.5C127.49 52.9375 125.188 52.2396 123.875 51.4062C123.312 51.0938 122.74 50.2812 122.156 48.9688C121.448 47.7812 120.969 46.375 120.719 44.75C120.719 44.6875 120.708 44.5417 120.688 44.3125C120.667 44.0625 120.656 43.9062 120.656 43.8438ZM167.156 59.9688V59.4062C167.156 58.6562 167.177 58.1354 167.219 57.8438C167.219 57.3229 167.521 55.6875 168.125 52.9375C168.917 50.3542 169.75 48.2188 170.625 46.5312C171.729 44.3854 173.438 42.25 175.75 40.125C178.083 38.0417 180.875 36.375 184.125 35.125C186.604 34.1875 188.885 33.7188 190.969 33.7188C192.865 33.7188 194.719 34.1458 196.531 35C200.052 36.7083 201.938 39.0625 202.188 42.0625V42.6875C202.188 43.9167 201.865 45.1562 201.219 46.4062C200.531 47.8021 199.865 48.8229 199.219 49.4688C198.49 50.1979 197.938 50.7083 197.562 51C195.938 52.25 194.104 52.875 192.062 52.875C191.417 52.875 190.99 52.8542 190.781 52.8125C190.219 52.75 189.708 52.3438 189.25 51.5938C188.833 50.9062 188.667 50.3646 188.75 49.9688L189.625 48.5625C190.125 47.8542 190.344 47.3438 190.281 47.0312L189.812 46.1562C189.604 45.8646 189.396 45.6458 189.188 45.5C188.583 45.2292 188.052 45.125 187.594 45.1875C187.052 45.25 186.542 45.4167 186.062 45.6875C185.604 45.9375 185.156 46.2396 184.719 46.5938C183.49 47.6562 182.698 48.4062 182.344 48.8438C180.385 51.2188 179.146 53.5208 178.625 55.75C178.5 56.7917 178.438 57.3229 178.438 57.3438C178.438 57.5104 178.458 57.6354 178.5 57.7188V58.4375C178.5 58.6458 178.542 58.875 178.625 59.125C178.625 59.1458 178.635 59.2083 178.656 59.3125C178.698 59.4167 178.74 59.5417 178.781 59.6875C178.823 59.8125 178.854 59.9062 178.875 59.9688C178.958 60.3646 179.062 60.6667 179.188 60.875C179.312 61.1875 179.531 61.5 179.844 61.8125L180.812 62.7812C181.167 63.0521 181.615 63.3125 182.156 63.5625C182.99 63.875 183.604 64.0833 184 64.1875L186.312 64.5625H189.25C189.979 64.5208 190.917 64.3125 192.062 63.9375L195 62.9688L197.562 62.3438L199.812 62.8438L201.344 65.2812C201.427 65.6979 201.469 65.9792 201.469 66.125C201.469 67.0833 200.854 68.0208 199.625 68.9375C198.062 69.9375 196.615 70.6146 195.281 70.9688C191.594 71.8438 188.26 72.3125 185.281 72.375H183.75C181.354 72.375 179.438 72.2083 178 71.875C176.104 71.5 174.521 70.9062 173.25 70.0938C171.792 69.2188 170.854 68.5729 170.438 68.1562C170.042 67.7604 169.635 67.2708 169.219 66.6875C167.969 64.6667 167.281 62.4271 167.156 59.9688ZM206.031 60.4062V59.25C206.031 57.6042 206.229 55.9062 206.625 54.1562C207.271 51.4479 208.125 49.1354 209.188 47.2188C210.25 45.1354 211.635 43.1771 213.344 41.3438C214.927 39.7604 216.719 38.375 218.719 37.1875C220.406 36.2292 222.052 35.6042 223.656 35.3125C224.323 35.2292 224.917 35.1875 225.438 35.1875C226.479 35.1875 227.312 35.2812 227.938 35.4688C229.167 35.7604 230.469 36.2292 231.844 36.875C232.073 36.9375 232.302 37.0417 232.531 37.1875C232.677 37.2708 232.896 37.375 233.188 37.5C233.229 37.5417 233.333 37.5625 233.5 37.5625H233.875C233.958 37.5625 234 37.5417 234 37.5C234.083 37.4583 234.167 37.3958 234.25 37.3125C234.354 37.2292 234.427 37.1875 234.469 37.1875C234.531 37.0833 234.677 36.9167 234.906 36.6875C235.01 36.6875 235.094 36.6562 235.156 36.5938C235.156 36.5729 235.188 36.5521 235.25 36.5312C235.271 36.5104 235.281 36.5 235.281 36.5C235.302 36.5 235.323 36.4896 235.344 36.4688H235.875C236.542 36.5938 237.219 36.75 237.906 36.9375C238.719 37.1458 239.323 37.375 239.719 37.625C240.802 38.1875 241.615 38.6771 242.156 39.0938C242.719 39.5729 243.094 39.9375 243.281 40.1875C243.76 40.8125 244.062 41.3854 244.188 41.9062V42.4375C244.188 43.0833 244.104 43.5729 243.938 43.9062C243.708 44.4271 243.26 45.3021 242.594 46.5312C241.781 47.9479 241.375 48.7188 241.375 48.8438C240.271 51.1979 239.438 53.6042 238.875 56.0625C238.458 57.7083 238.25 59.1354 238.25 60.3438C238.25 61.1562 238.333 61.7604 238.5 62.1562C238.688 62.6979 239.031 63.125 239.531 63.4375C239.865 63.6458 240.198 63.75 240.531 63.75C240.885 63.75 241.229 63.6458 241.562 63.4375L241.688 63.375L241.875 63.25C242 63.1667 242.094 63.0938 242.156 63.0312C242.219 63.0104 242.302 62.9688 242.406 62.9062C242.531 62.8438 242.625 62.7917 242.688 62.75C242.771 62.6875 242.823 62.6562 242.844 62.6562C243.24 62.5312 243.667 62.5312 244.125 62.6562C244.521 62.8646 244.823 63.1667 245.031 63.5625C245.448 64.1042 245.719 64.8646 245.844 65.8438V66.375C245.844 67.0417 245.719 67.6562 245.469 68.2188C245.135 69.0312 244.521 69.7188 243.625 70.2812C243.042 70.7188 242.208 71.0833 241.125 71.375C240.229 71.6458 239.271 71.8542 238.25 72C237.5 72.1667 236.406 72.25 234.969 72.25H234.531C233.469 72.25 232.396 72.1667 231.312 72C230.333 71.8333 229.573 71.5729 229.031 71.2188C228.573 70.8229 228.333 70.6146 228.312 70.5938L227.938 70.0312L227.688 69.5L226 70.2812L224.031 71.1562C223.365 71.4479 222.573 71.6875 221.656 71.875C220.094 72.0833 218.896 72.1875 218.062 72.1875C217.271 72.1875 216.49 72.125 215.719 72C214.49 71.8125 213.271 71.4062 212.062 70.7812C210.438 69.9479 209.135 68.7292 208.156 67.125C206.927 65.2708 206.219 63.0312 206.031 60.4062ZM217.375 57.7812C217.375 58.2188 217.396 58.4792 217.438 58.5625C217.625 59.4792 217.927 60.1875 218.344 60.6875C218.615 61.0625 219.125 61.4167 219.875 61.75C220.125 61.8333 220.469 61.875 220.906 61.875C221.323 61.875 221.594 61.8542 221.719 61.8125C223.26 61.625 224.708 60.7917 226.062 59.3125C226.854 58.4167 227.333 57.8438 227.5 57.5938C227.875 57.0729 228.271 55.9271 228.688 54.1562C229.125 52.3646 229.385 50.3125 229.469 48C229.469 47.5833 229.281 47.1562 228.906 46.7188C228.573 46.2604 228.292 46 228.062 45.9375C227.792 45.7292 227.406 45.625 226.906 45.625H226.531C225.969 45.6875 225.458 45.8646 225 46.1562C224.458 46.4271 224.01 46.7188 223.656 47.0312C222.823 47.5938 222.031 48.3438 221.281 49.2812C219.323 51.6562 218.083 53.9583 217.562 56.1875C217.438 56.6875 217.375 57.2188 217.375 57.7812ZM249.656 62.6562C249.656 62.0938 249.792 61.4792 250.062 60.8125C250.604 59.375 251.417 58.2812 252.5 57.5312C254.333 56.3229 256.25 54.2292 258.25 51.25C260.292 48.2083 261.781 45.0729 262.719 41.8438C262.76 41.8021 262.781 41.6562 262.781 41.4062C262.781 40.5729 262.51 39.5104 261.969 38.2188C261.26 36.4062 260.875 34.9896 260.812 33.9688C260.812 33.8854 260.802 33.7396 260.781 33.5312C260.76 33.3021 260.75 33.1562 260.75 33.0938C260.75 31.9479 260.938 30.7292 261.312 29.4375C261.75 27.8333 262.5 26.5312 263.562 25.5312C264.167 24.8438 264.865 24.5 265.656 24.5C265.906 24.5 266.333 24.6146 266.938 24.8438C268.604 25.5938 269.906 27 270.844 29.0625C271.781 31.1042 272.344 33.0417 272.531 34.875C272.615 36.3333 272.656 37.125 272.656 37.25C272.656 37.5208 272.615 38.1354 272.531 39.0938C273.135 39.6354 274.708 40.8125 277.25 42.625C280.104 44.6458 282 46.0312 282.938 46.7812C284.521 48.0521 285.917 49.5938 287.125 51.4062C288.396 53.2396 289.031 55.1562 289.031 57.1562C289.031 60.7188 288.365 63.5521 287.031 65.6562C285.865 67.5104 284.094 69.0208 281.719 70.1875C279.365 71.3542 276.854 71.9375 274.188 71.9375C272.646 71.9375 271.177 71.7188 269.781 71.2812C267.448 70.5312 265.271 69.2812 263.25 67.5312C262.208 66.4896 261.688 65.4167 261.688 64.3125C261.688 63.6042 261.906 62.8854 262.344 62.1562C263.156 61.0312 263.927 60.4688 264.656 60.4688C265.115 60.4688 265.542 60.6146 265.938 60.9062C266.354 61.1771 266.865 61.5833 267.469 62.125C268.073 62.6667 268.667 63.1042 269.25 63.4375C270.25 64.0208 271.208 64.3125 272.125 64.3125H272.531C273.552 64.3125 274.552 63.8854 275.531 63.0312C276.531 62.1562 277.25 60.9896 277.688 59.5312C277.917 58.6562 278.031 58.0521 278.031 57.7188C278.031 57.0521 277.875 56.4375 277.562 55.875C277.125 54.9167 276.49 54.0208 275.656 53.1875L272.469 50.75L269.5 48.25C269 49.125 268.406 50.0833 267.719 51.125L265.406 55.0312C265.01 55.8021 264.5 56.6354 263.875 57.5312C263.271 58.4271 262.292 59.6458 260.938 61.1875C259.958 62.3333 258.698 63.4583 257.156 64.5625C255.365 65.7292 253.875 66.3125 252.688 66.3125C251.667 66.3125 250.875 65.8854 250.312 65.0312C249.875 64.1771 249.656 63.3854 249.656 62.6562ZM292.844 65.0312C292.844 63.5104 293.208 61.6042 293.938 59.3125C294.938 56.4792 296.156 52.5208 297.594 47.4375C300.094 38.875 301.865 32.4688 302.906 28.2188C302.885 28.1979 302.812 28.1771 302.688 28.1562C302.583 28.1146 302.427 28.0521 302.219 27.9688C302.031 27.8854 301.833 27.8021 301.625 27.7188L300.219 27C299.406 26.5208 298.74 25.8021 298.219 24.8438C297.719 23.8854 297.469 22.875 297.469 21.8125C297.469 21.2083 297.531 20.6562 297.656 20.1562C298.094 18.7604 298.823 18.0625 299.844 18.0625C300.281 18.0625 300.708 18.2083 301.125 18.5C301.625 18.7708 303.073 19.1979 305.469 19.7812L308.156 11.9062C308.969 9.40625 310.094 7.0625 311.531 4.875C312.927 2.77083 314.51 1.71875 316.281 1.71875C316.385 1.71875 316.646 1.76042 317.062 1.84375C319.667 2.15625 320.969 3.57292 320.969 6.09375C320.969 7.78125 320.24 10.375 318.781 13.875L316.219 20.5312C319.406 20.2188 321.24 19.9271 321.719 19.6562C323.573 19.2188 325.177 19 326.531 19C327.219 19 327.823 19.0521 328.344 19.1562C328.885 19.2604 329.26 19.375 329.469 19.5C329.677 19.6042 329.781 19.6979 329.781 19.7812V19.8438C330.344 20.5729 330.625 21.4271 330.625 22.4062C330.625 24.5729 329.708 26.3229 327.875 27.6562C326.312 28.8438 323.427 29.4375 319.219 29.4375C318.74 29.4375 317.906 29.4167 316.719 29.375C315.552 29.3333 314.875 29.3125 314.688 29.3125C314.604 29.3125 314.427 29.3229 314.156 29.3438C313.885 29.3646 313.719 29.375 313.656 29.375C313.385 30.2917 312.302 33.3438 310.406 38.5312C308.26 44.4062 306.677 49.0104 305.656 52.3438C304.427 56.4688 303.812 59.4167 303.812 61.1875C303.812 62.0833 303.979 62.6354 304.312 62.8438C304.688 63.0938 305.094 63.2188 305.531 63.2188C306.427 63.2188 307.708 62.75 309.375 61.8125C310.521 61.2083 311.448 60.8125 312.156 60.625C312.885 60.4167 313.427 60.3646 313.781 60.4688C314.135 60.5729 314.458 60.8125 314.75 61.1875C315.292 61.7292 315.562 62.5417 315.562 63.625C315.562 65.75 314.5 67.4792 312.375 68.8125C308.854 71.1458 304.906 72.3125 300.531 72.3125H300.281C298.49 72.25 297.167 72.0625 296.312 71.75C295.583 71.4583 294.771 70.6042 293.875 69.1875C293.188 68.0833 292.844 66.6979 292.844 65.0312ZM326.094 43.8438C326.094 42.6979 326.479 41.6771 327.25 40.7812C328.438 39.5312 329.781 38.5417 331.281 37.8125C332.635 37.0625 333.833 36.5729 334.875 36.3438C336.333 36.0938 338 35.8646 339.875 35.6562L344.469 35.0625C345.302 34.8958 346.969 34.75 349.469 34.625C351.427 34.5208 353.562 34.2604 355.875 33.8438C358.146 33.3854 360.771 32.6875 363.75 31.75C363.833 31.75 363.875 31.8333 363.875 32C363.875 32.5417 363.448 34.1458 362.594 36.8125C361.781 39.125 361.271 40.6979 361.062 41.5312L360.469 42.5625C360.281 42.8958 360.01 43.1458 359.656 43.3125C359.073 43.6458 358.75 43.8229 358.688 43.8438C358.438 44.0312 358.052 44.1562 357.531 44.2188L356.25 44.4688C356 44.5312 355.51 44.6042 354.781 44.6875C354.052 44.75 353.562 44.8125 353.312 44.875C352.021 45 350.865 45.0625 349.844 45.0625C348.74 45.0625 348.062 45.0417 347.812 45C346.833 44.8333 345.573 44.75 344.031 44.75H343.188C341.562 44.8125 340.177 45.1042 339.031 45.625C338.677 45.8125 338.531 46.0312 338.594 46.2812C338.844 46.8438 341.677 47.4375 347.094 48.0625C350.885 48.5417 353.302 48.8854 354.344 49.0938C355.094 49.2604 355.635 49.4688 355.969 49.7188C356.302 49.9688 356.458 50.2917 356.438 50.6875V53.4375L356.25 54.4688C356.146 54.8646 355.979 55.2083 355.75 55.5C355.438 55.8125 355.094 56.0625 354.719 56.25C352.99 57.2292 351.052 58 348.906 58.5625L343.5 59.9688C342.062 60.4062 341.125 60.9792 340.688 61.6875C340.5 62 340.438 62.2604 340.5 62.4688C340.667 62.7604 341.156 62.9062 341.969 62.9062C343.323 62.9062 345.417 62.5208 348.25 61.75C350.271 61.2292 353.021 60.125 356.5 58.4375C360.062 56.7292 362.927 55.6146 365.094 55.0938C365.677 55.0104 365.99 54.9688 366.031 54.9688C366.469 54.9688 366.938 55.0521 367.438 55.2188C368.229 55.5729 368.656 56.1146 368.719 56.8438C368.719 56.9062 368.729 57.0312 368.75 57.2188C368.771 57.4062 368.781 57.5312 368.781 57.5938C368.781 60.4479 366.719 62.9896 362.594 65.2188C358.469 67.4896 354.625 69.3229 351.062 70.7188C348.146 71.7396 344.625 72.25 340.5 72.25C332.417 72.25 327.958 69.9062 327.125 65.2188C327.042 64.5521 327 64.1875 327 64.125C327 63.2083 327.281 62.2083 327.844 61.125C328.594 59.7292 329.573 58.5521 330.781 57.5938C332.49 56.3646 333.688 55.5521 334.375 55.1562C335.396 54.5938 336.375 54.125 337.312 53.75C337.062 53.7083 336.698 53.625 336.219 53.5C332.927 52.9375 330.625 52.2396 329.312 51.4062C328.75 51.0938 328.177 50.2812 327.594 48.9688C326.885 47.7812 326.406 46.375 326.156 44.75C326.156 44.6875 326.146 44.5417 326.125 44.3125C326.104 44.0625 326.094 43.9062 326.094 43.8438ZM372.594 62.7188C372.594 62.1562 372.729 61.5417 373 60.875C373.542 59.4375 374.354 58.3438 375.438 57.5938C377.271 56.3854 379.188 54.2917 381.188 51.3125C383.229 48.2708 384.719 45.1354 385.656 41.9062C385.698 41.8646 385.719 41.7188 385.719 41.4688C385.719 40.6562 385.448 39.5729 384.906 38.2188C384.198 36.4688 383.812 35.0833 383.75 34.0625C383.75 33.9792 383.74 33.8333 383.719 33.625C383.698 33.3958 383.688 33.2396 383.688 33.1562C383.688 31.0521 384.219 29.1042 385.281 27.3125C386.177 25.625 387.354 24.7812 388.812 24.7812C389.188 24.7812 389.542 24.8229 389.875 24.9062C391.438 25.3438 392.719 26.4479 393.719 28.2188C394.76 30.0729 395.406 31.8229 395.656 33.4688C395.865 34.7604 395.969 35.6562 395.969 36.1562C395.969 36.3438 395.927 36.7708 395.844 37.4375C397.635 39.125 400.219 40.5521 403.594 41.7188C406.885 42.9271 409.146 44.0833 410.375 45.1875C410.729 45.4792 410.938 45.8854 411 46.4062C411.062 46.8854 410.979 47.3958 410.75 47.9375C410.708 48.1875 410.385 48.8229 409.781 49.8438C409.24 50.7188 408.75 51.4479 408.312 52.0312L406.281 54.5312C404.448 56.7604 403.531 58.7604 403.531 60.5312C403.531 61.0104 403.635 61.5938 403.844 62.2812C404.24 63.2812 404.854 63.8125 405.688 63.875H406C406.833 63.875 407.542 63.7292 408.125 63.4375L408.906 63.2812C409.448 63.2812 409.938 63.5 410.375 63.9375C411.271 64.8333 411.781 65.8125 411.906 66.875C411.948 66.9583 411.969 67.1562 411.969 67.4688C411.969 68.3438 411.604 69 410.875 69.4375C407.146 71.3542 403.625 72.3125 400.312 72.3125H400.125C398.312 72.25 396.99 72.0625 396.156 71.75C395.365 71.4375 394.552 70.5833 393.719 69.1875C392.865 67.8333 392.438 66.2083 392.438 64.3125C392.438 62.1875 392.948 59.7604 393.969 57.0312C394.615 55.6562 395.281 54.5 395.969 53.5625C396.677 52.6458 397.25 51.9688 397.688 51.5312C398.104 51.1146 398.281 50.6875 398.219 50.25C398.156 49.8333 397.812 49.4479 397.188 49.0938L393.656 47.4375L392.719 49.0938L391.75 50.875L390.656 52.4062L387.594 56.625C386.156 58.5833 384.958 60.125 384 61.25C382.75 62.5625 381.448 63.6875 380.094 64.625C379.344 65.2083 378.552 65.6562 377.719 65.9688C376.844 66.1979 376.229 66.3125 375.875 66.3125L375.156 66.25C374.323 66.1875 373.688 65.8021 373.25 65.0938C372.812 64.2396 372.594 63.4479 372.594 62.7188Z" fill="white"/>
</svg>
