<svg width="142" height="26" viewBox="0 0 142 26" fill="none" xmlns="http://www.w3.org/2000/svg">
<path d="M0.655273 6.40527C0.655273 6.2334 0.662435 6.12598 0.676758 6.08301C0.676758 5.93978 0.734049 5.81087 0.848633 5.69629C0.963216 5.57454 1.07064 5.49219 1.1709 5.44922C1.27832 5.39909 1.34277 5.37402 1.36426 5.37402C2.16634 5.25944 4.69792 5.20215 8.95898 5.20215C11.1576 5.20215 12.6292 5.1735 13.374 5.11621C13.4313 5.10189 13.5638 5.09473 13.7715 5.09473C14.1296 5.09473 14.3766 5.1556 14.5127 5.27734C14.6488 5.39193 14.7168 5.59961 14.7168 5.90039C14.7168 6.43034 14.5879 6.9209 14.3301 7.37207C14.0794 7.81608 13.7751 8.07389 13.417 8.14551C12.7796 8.25293 11.6159 8.30664 9.92578 8.30664H9.61426C8.99121 9.71745 8.36816 11.6367 7.74512 14.0645C7.13639 16.528 6.63151 18.6979 6.23047 20.5742C5.80078 22.5794 5.52148 23.7253 5.39258 24.0117C5.20638 24.0833 4.92708 24.223 4.55469 24.4307C4.18229 24.6383 3.83854 24.8031 3.52344 24.9248C3.26562 25.0251 3.01855 25.0752 2.78223 25.0752C2.72493 25.0752 2.67122 25.0716 2.62109 25.0645C2.27018 25.0645 1.94792 24.9749 1.6543 24.7959C1.36068 24.6169 1.21387 24.4056 1.21387 24.1621C1.21387 24.0762 1.22103 24.026 1.23535 24.0117C1.59342 22.9805 2.24512 20.5241 3.19043 16.6426C4.07129 13.0046 4.81966 10.2259 5.43555 8.30664C3.47331 8.30664 2.15202 8.39258 1.47168 8.56445H1.40723C1.1709 8.56445 0.988281 8.33171 0.859375 7.86621C0.723307 7.35775 0.655273 6.87077 0.655273 6.40527ZM15.5869 15.3213C15.5869 14.9274 15.7194 14.5765 15.9844 14.2686C16.3926 13.8389 16.8545 13.4987 17.3701 13.248C17.8356 12.9902 18.2474 12.8219 18.6055 12.7432C19.1068 12.6572 19.6797 12.5785 20.3242 12.5068L21.9033 12.3027C22.1898 12.2454 22.7627 12.1953 23.6221 12.1523C24.2952 12.1165 25.0293 12.027 25.8242 11.8838C26.6048 11.7262 27.5072 11.4863 28.5312 11.1641C28.5599 11.1641 28.5742 11.1927 28.5742 11.25C28.5742 11.4362 28.4274 11.9876 28.1338 12.9043C27.8545 13.6992 27.679 14.2399 27.6074 14.5264L27.4033 14.8809C27.3389 14.9954 27.2458 15.0814 27.124 15.1387C26.9235 15.2533 26.8125 15.3141 26.791 15.3213C26.7051 15.3857 26.5726 15.4287 26.3936 15.4502L25.9531 15.5361C25.8672 15.5576 25.6989 15.5827 25.4482 15.6113C25.1976 15.6328 25.0293 15.6543 24.9434 15.6758C24.4993 15.7188 24.1019 15.7402 23.751 15.7402C23.3714 15.7402 23.1387 15.7331 23.0527 15.7188C22.7161 15.6615 22.2829 15.6328 21.7529 15.6328H21.4629C20.9043 15.6543 20.4281 15.7546 20.0342 15.9336C19.9124 15.998 19.8623 16.0732 19.8838 16.1592C19.9697 16.3525 20.9437 16.5566 22.8057 16.7715C24.109 16.9362 24.9398 17.0544 25.2979 17.126C25.5557 17.1833 25.7419 17.2549 25.8564 17.3408C25.971 17.4268 26.0247 17.5378 26.0176 17.6738V18.6191L25.9531 18.9736C25.9173 19.1097 25.86 19.2279 25.7812 19.3281C25.6738 19.4355 25.5557 19.5215 25.4268 19.5859C24.8324 19.9225 24.1663 20.1875 23.4287 20.3809L21.5703 20.8643C21.0762 21.0146 20.7539 21.2116 20.6035 21.4551C20.5391 21.5625 20.5176 21.652 20.5391 21.7236C20.5964 21.8239 20.7646 21.874 21.0439 21.874C21.5094 21.874 22.2292 21.7415 23.2031 21.4766C23.8978 21.2975 24.8431 20.918 26.0391 20.3379C27.2637 19.7507 28.2484 19.3675 28.9932 19.1885C29.1937 19.1598 29.3011 19.1455 29.3154 19.1455C29.4658 19.1455 29.627 19.1742 29.7988 19.2314C30.071 19.3532 30.2178 19.5394 30.2393 19.79C30.2393 19.8115 30.2428 19.8545 30.25 19.9189C30.2572 19.9834 30.2607 20.0264 30.2607 20.0479C30.2607 21.029 29.5518 21.9027 28.1338 22.6689C26.7158 23.4495 25.3945 24.0798 24.1699 24.5596C23.1673 24.9105 21.957 25.0859 20.5391 25.0859C17.7604 25.0859 16.2279 24.2803 15.9414 22.6689C15.9128 22.4398 15.8984 22.3145 15.8984 22.293C15.8984 21.9779 15.9951 21.6341 16.1885 21.2617C16.4463 20.7819 16.7829 20.3773 17.1982 20.0479C17.7855 19.6253 18.1973 19.346 18.4336 19.21C18.7845 19.0166 19.1211 18.8555 19.4434 18.7266C19.3574 18.7122 19.2321 18.6836 19.0674 18.6406C17.9359 18.4473 17.1445 18.2074 16.6934 17.9209C16.5 17.8135 16.3031 17.5342 16.1025 17.083C15.859 16.6748 15.6943 16.1914 15.6084 15.6328C15.6084 15.6113 15.6048 15.5612 15.5977 15.4824C15.5905 15.3965 15.5869 15.3428 15.5869 15.3213ZM31.5713 23.7646C31.5713 23.6501 31.5892 23.5033 31.625 23.3242L33.752 14.9453C34.6257 11.429 35.2057 9.21615 35.4922 8.30664C35.8073 7.16797 36.2119 5.98633 36.7061 4.76172C37.1214 3.70182 37.6764 2.67415 38.3711 1.67871C38.987 0.812174 39.5742 0.378906 40.1328 0.378906H40.2832C41.1641 0.464844 41.6045 1.11296 41.6045 2.32324C41.6045 2.93913 41.4827 3.72331 41.2393 4.67578C41.0029 5.54948 40.319 7.52962 39.1875 10.6162C37.0749 15.6006 35.9326 19.1061 35.7607 21.1328V21.4551L35.8037 21.7236L35.8467 21.917L35.8896 22.0352L35.9756 22.0996L36.1045 22.1426L36.2012 22.1641H36.416C36.6165 22.1641 36.9603 22.096 37.4473 21.96C37.8268 21.8454 38.1562 21.7881 38.4355 21.7881H38.5967C38.8903 21.8096 39.1087 21.9993 39.252 22.3574C39.3092 22.472 39.3379 22.6403 39.3379 22.8623C39.3379 23.1416 39.2448 23.4424 39.0586 23.7646C38.765 24.2516 38.4033 24.5739 37.9736 24.7314C37.0785 25.0824 36.0472 25.333 34.8799 25.4834C34.2712 25.555 33.8379 25.5908 33.5801 25.5908C33.0716 25.5908 32.71 25.5264 32.4951 25.3975C32.223 25.2184 31.9759 24.932 31.7539 24.5381C31.6322 24.2301 31.5713 23.9723 31.5713 23.7646ZM41.8193 15.3213C41.8193 14.9274 41.9518 14.5765 42.2168 14.2686C42.625 13.8389 43.0869 13.4987 43.6025 13.248C44.068 12.9902 44.4798 12.8219 44.8379 12.7432C45.3392 12.6572 45.9121 12.5785 46.5566 12.5068L48.1357 12.3027C48.4222 12.2454 48.9951 12.1953 49.8545 12.1523C50.5277 12.1165 51.2617 12.027 52.0566 11.8838C52.8372 11.7262 53.7396 11.4863 54.7637 11.1641C54.7923 11.1641 54.8066 11.1927 54.8066 11.25C54.8066 11.4362 54.6598 11.9876 54.3662 12.9043C54.0869 13.6992 53.9115 14.2399 53.8398 14.5264L53.6357 14.8809C53.5713 14.9954 53.4782 15.0814 53.3564 15.1387C53.1559 15.2533 53.0449 15.3141 53.0234 15.3213C52.9375 15.3857 52.805 15.4287 52.626 15.4502L52.1855 15.5361C52.0996 15.5576 51.9313 15.5827 51.6807 15.6113C51.43 15.6328 51.2617 15.6543 51.1758 15.6758C50.7318 15.7188 50.3343 15.7402 49.9834 15.7402C49.6038 15.7402 49.3711 15.7331 49.2852 15.7188C48.9486 15.6615 48.5153 15.6328 47.9854 15.6328H47.6953C47.1367 15.6543 46.6605 15.7546 46.2666 15.9336C46.1449 15.998 46.0947 16.0732 46.1162 16.1592C46.2021 16.3525 47.1761 16.5566 49.0381 16.7715C50.3415 16.9362 51.1722 17.0544 51.5303 17.126C51.7881 17.1833 51.9743 17.2549 52.0889 17.3408C52.2035 17.4268 52.2572 17.5378 52.25 17.6738V18.6191L52.1855 18.9736C52.1497 19.1097 52.0924 19.2279 52.0137 19.3281C51.9062 19.4355 51.7881 19.5215 51.6592 19.5859C51.0648 19.9225 50.3988 20.1875 49.6611 20.3809L47.8027 20.8643C47.3086 21.0146 46.9863 21.2116 46.8359 21.4551C46.7715 21.5625 46.75 21.652 46.7715 21.7236C46.8288 21.8239 46.9971 21.874 47.2764 21.874C47.7419 21.874 48.4616 21.7415 49.4355 21.4766C50.1302 21.2975 51.0755 20.918 52.2715 20.3379C53.4961 19.7507 54.4808 19.3675 55.2256 19.1885C55.4261 19.1598 55.5335 19.1455 55.5479 19.1455C55.6982 19.1455 55.8594 19.1742 56.0312 19.2314C56.3034 19.3532 56.4502 19.5394 56.4717 19.79C56.4717 19.8115 56.4753 19.8545 56.4824 19.9189C56.4896 19.9834 56.4932 20.0264 56.4932 20.0479C56.4932 21.029 55.7842 21.9027 54.3662 22.6689C52.9482 23.4495 51.627 24.0798 50.4023 24.5596C49.3997 24.9105 48.1895 25.0859 46.7715 25.0859C43.9928 25.0859 42.4603 24.2803 42.1738 22.6689C42.1452 22.4398 42.1309 22.3145 42.1309 22.293C42.1309 21.9779 42.2275 21.6341 42.4209 21.2617C42.6787 20.7819 43.0153 20.3773 43.4307 20.0479C44.0179 19.6253 44.4297 19.346 44.666 19.21C45.0169 19.0166 45.3535 18.8555 45.6758 18.7266C45.5898 18.7122 45.4645 18.6836 45.2998 18.6406C44.1683 18.4473 43.377 18.2074 42.9258 17.9209C42.7324 17.8135 42.5355 17.5342 42.335 17.083C42.0915 16.6748 41.9268 16.1914 41.8408 15.6328C41.8408 15.6113 41.8372 15.5612 41.8301 15.4824C41.8229 15.3965 41.8193 15.3428 41.8193 15.3213ZM57.8037 20.8643V20.6709C57.8037 20.4131 57.8109 20.234 57.8252 20.1338C57.8252 19.9548 57.929 19.3926 58.1367 18.4473C58.4089 17.5592 58.6953 16.8252 58.9961 16.2451C59.3757 15.5075 59.9629 14.7734 60.7578 14.043C61.5599 13.3268 62.5195 12.7539 63.6367 12.3242C64.4889 12.002 65.2731 11.8408 65.9893 11.8408C66.641 11.8408 67.2783 11.9876 67.9014 12.2812C69.1117 12.8685 69.7598 13.6777 69.8457 14.709V14.9238C69.8457 15.3464 69.7347 15.7725 69.5127 16.2021C69.2764 16.682 69.0472 17.0329 68.8252 17.2549C68.5745 17.5055 68.3848 17.681 68.2559 17.7812C67.6973 18.2109 67.0671 18.4258 66.3652 18.4258C66.1432 18.4258 65.9964 18.4186 65.9248 18.4043C65.7314 18.3828 65.556 18.2432 65.3984 17.9854C65.2552 17.749 65.1979 17.5628 65.2266 17.4268L65.5273 16.9434C65.6992 16.6999 65.7744 16.5244 65.7529 16.417L65.5918 16.1162C65.5202 16.016 65.4486 15.9408 65.377 15.8906C65.1693 15.7975 64.9867 15.7617 64.8291 15.7832C64.6429 15.8047 64.4674 15.862 64.3027 15.9551C64.1452 16.041 63.9912 16.1449 63.8408 16.2666C63.4183 16.6318 63.1462 16.8896 63.0244 17.04C62.3512 17.8564 61.9251 18.6478 61.7461 19.4141C61.7031 19.7721 61.6816 19.9548 61.6816 19.9619C61.6816 20.0192 61.6888 20.0622 61.7031 20.0908V20.3379C61.7031 20.4095 61.7174 20.4883 61.7461 20.5742C61.7461 20.5814 61.7497 20.6029 61.7568 20.6387C61.7712 20.6745 61.7855 20.7174 61.7998 20.7676C61.8141 20.8105 61.8249 20.8428 61.832 20.8643C61.8607 21.0003 61.8965 21.1042 61.9395 21.1758C61.9824 21.2832 62.0576 21.3906 62.165 21.498L62.498 21.8311C62.6198 21.9242 62.7738 22.0137 62.96 22.0996C63.2464 22.207 63.4577 22.2786 63.5938 22.3145L64.3887 22.4434H65.3984C65.6491 22.429 65.9714 22.3574 66.3652 22.2285L67.375 21.8955L68.2559 21.6807L69.0293 21.8525L69.5557 22.6904C69.5843 22.8337 69.5986 22.9303 69.5986 22.9805C69.5986 23.3099 69.3874 23.6322 68.9648 23.9473C68.4277 24.291 67.93 24.5238 67.4717 24.6455C66.2041 24.9463 65.0583 25.1074 64.0342 25.1289H63.5078C62.6842 25.1289 62.0254 25.0716 61.5312 24.957C60.8796 24.8281 60.3353 24.624 59.8984 24.3447C59.3971 24.0439 59.0749 23.8219 58.9316 23.6787C58.7956 23.5426 58.6559 23.3743 58.5127 23.1738C58.083 22.4792 57.8467 21.7093 57.8037 20.8643ZM71.167 21.0146V20.6172C71.167 20.0514 71.235 19.4678 71.3711 18.8662C71.5931 17.9352 71.8867 17.1403 72.252 16.4814C72.6172 15.7653 73.0934 15.0921 73.6807 14.4619C74.2249 13.9176 74.8408 13.4414 75.5283 13.0332C76.1084 12.7038 76.6742 12.4889 77.2256 12.3887C77.4548 12.36 77.6589 12.3457 77.8379 12.3457C78.196 12.3457 78.4824 12.3779 78.6973 12.4424C79.1198 12.5426 79.5674 12.7038 80.04 12.9258C80.1188 12.9473 80.1976 12.9831 80.2764 13.0332C80.3265 13.0618 80.4017 13.0977 80.502 13.1406C80.5163 13.1549 80.5521 13.1621 80.6094 13.1621H80.7383C80.7669 13.1621 80.7812 13.1549 80.7812 13.1406C80.8099 13.1263 80.8385 13.1048 80.8672 13.0762C80.903 13.0475 80.9281 13.0332 80.9424 13.0332C80.9639 12.9974 81.014 12.9401 81.0928 12.8613C81.1286 12.8613 81.1572 12.8506 81.1787 12.8291C81.1787 12.8219 81.1895 12.8148 81.2109 12.8076C81.2181 12.8005 81.2217 12.7969 81.2217 12.7969C81.2288 12.7969 81.236 12.7933 81.2432 12.7861H81.4258C81.6549 12.8291 81.8877 12.8828 82.124 12.9473C82.4033 13.0189 82.611 13.0977 82.7471 13.1836C83.1195 13.377 83.3988 13.5452 83.585 13.6885C83.7783 13.8532 83.9072 13.9785 83.9717 14.0645C84.1364 14.2793 84.2402 14.4762 84.2832 14.6553V14.8379C84.2832 15.0599 84.2546 15.2282 84.1973 15.3428C84.1185 15.5218 83.9645 15.8226 83.7354 16.2451C83.4561 16.7321 83.3164 16.9971 83.3164 17.04C82.9368 17.8493 82.6504 18.6764 82.457 19.5215C82.3138 20.0872 82.2422 20.5778 82.2422 20.9932C82.2422 21.2725 82.2708 21.4801 82.3281 21.6162C82.3926 21.8024 82.5107 21.9492 82.6826 22.0566C82.7972 22.1283 82.9118 22.1641 83.0264 22.1641C83.1481 22.1641 83.2663 22.1283 83.3809 22.0566L83.4238 22.0352L83.4883 21.9922C83.5312 21.9635 83.5635 21.9385 83.585 21.917C83.6064 21.9098 83.6351 21.8955 83.6709 21.874C83.7139 21.8525 83.7461 21.8346 83.7676 21.8203C83.7962 21.7988 83.8141 21.7881 83.8213 21.7881C83.9574 21.7451 84.1042 21.7451 84.2617 21.7881C84.3978 21.8597 84.5016 21.9635 84.5732 22.0996C84.7165 22.2858 84.8096 22.5472 84.8525 22.8838V23.0664C84.8525 23.2956 84.8096 23.5068 84.7236 23.7002C84.609 23.9795 84.3978 24.2158 84.0898 24.4092C83.8893 24.5596 83.6029 24.6849 83.2305 24.7852C82.9225 24.8783 82.5931 24.9499 82.2422 25C81.9844 25.0573 81.6084 25.0859 81.1143 25.0859H80.9639C80.5986 25.0859 80.2298 25.0573 79.8574 25C79.5208 24.9427 79.2594 24.8532 79.0732 24.7314C78.9157 24.5954 78.8333 24.5238 78.8262 24.5166L78.6973 24.3232L78.6113 24.1406L78.0312 24.4092L77.3545 24.71C77.1253 24.8102 76.8532 24.8926 76.5381 24.957C76.001 25.0286 75.5892 25.0645 75.3027 25.0645C75.0306 25.0645 74.762 25.043 74.4971 25C74.0745 24.9355 73.6556 24.7959 73.2402 24.5811C72.6816 24.2946 72.234 23.8757 71.8975 23.3242C71.4749 22.6868 71.2314 21.917 71.167 21.0146ZM75.0664 20.1123C75.0664 20.2627 75.0736 20.3522 75.0879 20.3809C75.1523 20.696 75.2562 20.9395 75.3994 21.1113C75.4925 21.2402 75.668 21.362 75.9258 21.4766C76.0117 21.5052 76.1299 21.5195 76.2803 21.5195C76.4235 21.5195 76.5166 21.5124 76.5596 21.498C77.0895 21.4336 77.5872 21.1471 78.0527 20.6387C78.3249 20.3307 78.4896 20.1338 78.5469 20.0479C78.6758 19.8688 78.8118 19.4749 78.9551 18.8662C79.1055 18.2503 79.195 17.5449 79.2236 16.75C79.2236 16.6068 79.1592 16.46 79.0303 16.3096C78.9157 16.152 78.819 16.0625 78.7402 16.041C78.6471 15.9694 78.5146 15.9336 78.3428 15.9336H78.2139C78.0205 15.9551 77.8451 16.016 77.6875 16.1162C77.5013 16.2093 77.3473 16.3096 77.2256 16.417C76.9391 16.6104 76.667 16.8682 76.4092 17.1904C75.736 18.0068 75.3099 18.7982 75.1309 19.5645C75.0879 19.7363 75.0664 19.9189 75.0664 20.1123ZM86.1631 21.7881C86.1631 21.5947 86.2096 21.3835 86.3027 21.1543C86.4889 20.6602 86.7682 20.2842 87.1406 20.0264C87.7708 19.611 88.4297 18.8913 89.1172 17.8672C89.819 16.8216 90.3311 15.7438 90.6533 14.6338C90.6676 14.6195 90.6748 14.5693 90.6748 14.4834C90.6748 14.1969 90.5817 13.8317 90.3955 13.3877C90.152 12.7646 90.0195 12.2777 89.998 11.9268C89.998 11.8981 89.9945 11.848 89.9873 11.7764C89.9801 11.6976 89.9766 11.6475 89.9766 11.626C89.9766 11.2321 90.041 10.8132 90.1699 10.3691C90.3203 9.81771 90.5781 9.37012 90.9434 9.02637C91.151 8.79004 91.391 8.67188 91.6631 8.67188C91.749 8.67188 91.8958 8.71126 92.1035 8.79004C92.6764 9.04785 93.124 9.53125 93.4463 10.2402C93.7686 10.9421 93.9619 11.6081 94.0264 12.2383C94.055 12.7396 94.0693 13.0117 94.0693 13.0547C94.0693 13.1478 94.055 13.359 94.0264 13.6885C94.234 13.8747 94.7747 14.2793 95.6484 14.9023C96.6296 15.597 97.2812 16.0732 97.6035 16.3311C98.1478 16.7679 98.6276 17.2979 99.043 17.9209C99.4798 18.5511 99.6982 19.21 99.6982 19.8975C99.6982 21.1221 99.4691 22.096 99.0107 22.8193C98.6097 23.4567 98.001 23.9759 97.1846 24.377C96.3753 24.778 95.5124 24.9785 94.5957 24.9785C94.0658 24.9785 93.5609 24.9033 93.0811 24.7529C92.279 24.4951 91.5306 24.0654 90.8359 23.4639C90.4779 23.1058 90.2988 22.737 90.2988 22.3574C90.2988 22.1139 90.374 21.8669 90.5244 21.6162C90.8037 21.2295 91.0687 21.0361 91.3193 21.0361C91.4769 21.0361 91.6237 21.0863 91.7598 21.1865C91.903 21.2796 92.0785 21.4193 92.2861 21.6055C92.4938 21.7917 92.6979 21.9421 92.8984 22.0566C93.2422 22.2572 93.5716 22.3574 93.8867 22.3574H94.0264C94.3773 22.3574 94.721 22.2106 95.0576 21.917C95.4014 21.6162 95.6484 21.2152 95.7988 20.7139C95.8776 20.4131 95.917 20.2054 95.917 20.0908C95.917 19.8617 95.8633 19.6504 95.7559 19.457C95.6055 19.1276 95.387 18.8197 95.1006 18.5332L94.0049 17.6953L92.9844 16.8359C92.8125 17.1367 92.6084 17.4661 92.3721 17.8242L91.5771 19.167C91.4411 19.432 91.2656 19.7184 91.0508 20.0264C90.8431 20.3343 90.5065 20.7533 90.041 21.2832C89.7044 21.6771 89.2712 22.0638 88.7412 22.4434C88.1253 22.8444 87.6133 23.0449 87.2051 23.0449C86.8542 23.0449 86.582 22.8981 86.3887 22.6045C86.2383 22.3109 86.1631 22.0387 86.1631 21.7881ZM101.009 22.6045C101.009 22.0817 101.134 21.4264 101.385 20.6387C101.729 19.6647 102.147 18.304 102.642 16.5566C103.501 13.6133 104.11 11.4111 104.468 9.9502C104.461 9.94303 104.436 9.93587 104.393 9.92871C104.357 9.91439 104.303 9.8929 104.231 9.86426C104.167 9.83561 104.099 9.80697 104.027 9.77832L103.544 9.53125C103.265 9.36654 103.035 9.11947 102.856 8.79004C102.685 8.46061 102.599 8.11328 102.599 7.74805C102.599 7.54036 102.62 7.35059 102.663 7.17871C102.813 6.69889 103.064 6.45898 103.415 6.45898C103.565 6.45898 103.712 6.50911 103.855 6.60938C104.027 6.70247 104.525 6.84928 105.349 7.0498L106.272 4.34277C106.552 3.4834 106.938 2.67773 107.433 1.92578C107.912 1.20247 108.457 0.84082 109.065 0.84082C109.101 0.84082 109.191 0.855143 109.334 0.883789C110.229 0.991211 110.677 1.47819 110.677 2.34473C110.677 2.9248 110.426 3.81641 109.925 5.01953L109.044 7.30762C110.14 7.2002 110.77 7.09993 110.935 7.00684C111.572 6.85645 112.123 6.78125 112.589 6.78125C112.825 6.78125 113.033 6.79915 113.212 6.83496C113.398 6.87077 113.527 6.91016 113.599 6.95312C113.67 6.98893 113.706 7.02116 113.706 7.0498V7.07129C113.899 7.32194 113.996 7.61556 113.996 7.95215C113.996 8.69694 113.681 9.2985 113.051 9.75684C112.514 10.165 111.522 10.3691 110.075 10.3691C109.91 10.3691 109.624 10.362 109.216 10.3477C108.815 10.3333 108.582 10.3262 108.518 10.3262C108.489 10.3262 108.428 10.3298 108.335 10.3369C108.242 10.3441 108.185 10.3477 108.163 10.3477C108.07 10.6628 107.698 11.7119 107.046 13.4951C106.308 15.5146 105.764 17.0973 105.413 18.2432C104.991 19.6611 104.779 20.6745 104.779 21.2832C104.779 21.5911 104.837 21.7809 104.951 21.8525C105.08 21.9385 105.22 21.9814 105.37 21.9814C105.678 21.9814 106.118 21.8203 106.691 21.498C107.085 21.2904 107.404 21.1543 107.647 21.0898C107.898 21.0182 108.084 21.0003 108.206 21.0361C108.328 21.0719 108.439 21.1543 108.539 21.2832C108.725 21.4694 108.818 21.7487 108.818 22.1211C108.818 22.8516 108.453 23.446 107.723 23.9043C106.512 24.7064 105.155 25.1074 103.651 25.1074H103.565C102.95 25.0859 102.495 25.0215 102.201 24.9141C101.951 24.8138 101.671 24.5202 101.363 24.0332C101.127 23.6536 101.009 23.1774 101.009 22.6045ZM112.438 15.3213C112.438 14.9274 112.571 14.5765 112.836 14.2686C113.244 13.8389 113.706 13.4987 114.222 13.248C114.687 12.9902 115.099 12.8219 115.457 12.7432C115.958 12.6572 116.531 12.5785 117.176 12.5068L118.755 12.3027C119.041 12.2454 119.614 12.1953 120.474 12.1523C121.147 12.1165 121.881 12.027 122.676 11.8838C123.456 11.7262 124.359 11.4863 125.383 11.1641C125.411 11.1641 125.426 11.1927 125.426 11.25C125.426 11.4362 125.279 11.9876 124.985 12.9043C124.706 13.6992 124.531 14.2399 124.459 14.5264L124.255 14.8809C124.19 14.9954 124.097 15.0814 123.976 15.1387C123.775 15.2533 123.664 15.3141 123.643 15.3213C123.557 15.3857 123.424 15.4287 123.245 15.4502L122.805 15.5361C122.719 15.5576 122.55 15.5827 122.3 15.6113C122.049 15.6328 121.881 15.6543 121.795 15.6758C121.351 15.7188 120.953 15.7402 120.603 15.7402C120.223 15.7402 119.99 15.7331 119.904 15.7188C119.568 15.6615 119.134 15.6328 118.604 15.6328H118.314C117.756 15.6543 117.28 15.7546 116.886 15.9336C116.764 15.998 116.714 16.0732 116.735 16.1592C116.821 16.3525 117.795 16.5566 119.657 16.7715C120.961 16.9362 121.791 17.0544 122.149 17.126C122.407 17.1833 122.593 17.2549 122.708 17.3408C122.823 17.4268 122.876 17.5378 122.869 17.6738V18.6191L122.805 18.9736C122.769 19.1097 122.712 19.2279 122.633 19.3281C122.525 19.4355 122.407 19.5215 122.278 19.5859C121.684 19.9225 121.018 20.1875 120.28 20.3809L118.422 20.8643C117.928 21.0146 117.605 21.2116 117.455 21.4551C117.391 21.5625 117.369 21.652 117.391 21.7236C117.448 21.8239 117.616 21.874 117.896 21.874C118.361 21.874 119.081 21.7415 120.055 21.4766C120.749 21.2975 121.695 20.918 122.891 20.3379C124.115 19.7507 125.1 19.3675 125.845 19.1885C126.045 19.1598 126.153 19.1455 126.167 19.1455C126.317 19.1455 126.479 19.1742 126.65 19.2314C126.923 19.3532 127.069 19.5394 127.091 19.79C127.091 19.8115 127.094 19.8545 127.102 19.9189C127.109 19.9834 127.112 20.0264 127.112 20.0479C127.112 21.029 126.403 21.9027 124.985 22.6689C123.567 23.4495 122.246 24.0798 121.021 24.5596C120.019 24.9105 118.809 25.0859 117.391 25.0859C114.612 25.0859 113.079 24.2803 112.793 22.6689C112.764 22.4398 112.75 22.3145 112.75 22.293C112.75 21.9779 112.847 21.6341 113.04 21.2617C113.298 20.7819 113.634 20.3773 114.05 20.0479C114.637 19.6253 115.049 19.346 115.285 19.21C115.636 19.0166 115.973 18.8555 116.295 18.7266C116.209 18.7122 116.084 18.6836 115.919 18.6406C114.787 18.4473 113.996 18.2074 113.545 17.9209C113.352 17.8135 113.155 17.5342 112.954 17.083C112.711 16.6748 112.546 16.1914 112.46 15.6328C112.46 15.6113 112.456 15.5612 112.449 15.4824C112.442 15.3965 112.438 15.3428 112.438 15.3213ZM128.423 21.8096C128.423 21.6162 128.469 21.4049 128.562 21.1758C128.749 20.6816 129.028 20.3057 129.4 20.0479C130.031 19.6325 130.689 18.9128 131.377 17.8887C132.079 16.8431 132.591 15.7653 132.913 14.6553C132.927 14.641 132.935 14.5908 132.935 14.5049C132.935 14.2256 132.841 13.8532 132.655 13.3877C132.412 12.7861 132.279 12.3099 132.258 11.959C132.258 11.9303 132.254 11.8802 132.247 11.8086C132.24 11.7298 132.236 11.6761 132.236 11.6475C132.236 10.9242 132.419 10.2546 132.784 9.63867C133.092 9.05859 133.497 8.76855 133.998 8.76855C134.127 8.76855 134.249 8.78288 134.363 8.81152C134.9 8.96191 135.341 9.34147 135.685 9.9502C136.043 10.5876 136.265 11.1891 136.351 11.7549C136.422 12.1989 136.458 12.5068 136.458 12.6787C136.458 12.7432 136.444 12.89 136.415 13.1191C137.031 13.6992 137.919 14.1898 139.079 14.5908C140.211 15.0062 140.988 15.4036 141.41 15.7832C141.532 15.8835 141.604 16.0231 141.625 16.2021C141.646 16.3669 141.618 16.5423 141.539 16.7285C141.525 16.8145 141.414 17.0329 141.206 17.3838C141.02 17.6846 140.852 17.9352 140.701 18.1357L140.003 18.9951C139.373 19.7614 139.058 20.4489 139.058 21.0576C139.058 21.2223 139.093 21.4229 139.165 21.6592C139.301 22.0029 139.512 22.1855 139.799 22.207H139.906C140.193 22.207 140.436 22.1569 140.637 22.0566L140.905 22.0029C141.091 22.0029 141.26 22.0781 141.41 22.2285C141.718 22.5365 141.894 22.873 141.937 23.2383C141.951 23.2669 141.958 23.335 141.958 23.4424C141.958 23.7432 141.833 23.9688 141.582 24.1191C140.3 24.778 139.09 25.1074 137.951 25.1074H137.887C137.264 25.0859 136.809 25.0215 136.522 24.9141C136.25 24.8066 135.971 24.513 135.685 24.0332C135.391 23.5677 135.244 23.0091 135.244 22.3574C135.244 21.627 135.42 20.7926 135.771 19.8545C135.993 19.3818 136.222 18.9844 136.458 18.6621C136.701 18.347 136.898 18.1143 137.049 17.9639C137.192 17.8206 137.253 17.6738 137.231 17.5234C137.21 17.3802 137.092 17.2477 136.877 17.126L135.663 16.5566L135.341 17.126L135.008 17.7383L134.632 18.2646L133.579 19.7148C133.085 20.388 132.673 20.918 132.344 21.3047C131.914 21.7559 131.466 22.1426 131.001 22.4648C130.743 22.6654 130.471 22.8193 130.185 22.9268C129.884 23.0055 129.673 23.0449 129.551 23.0449L129.304 23.0234C129.017 23.002 128.799 22.8695 128.648 22.626C128.498 22.3324 128.423 22.0602 128.423 21.8096Z" fill="white"/>
</svg>
